<svg width="500" height="511" viewBox="0 0 500 511" fill="none" xmlns="http://www.w3.org/2000/svg">
<g clip-path="url(#clip0_1_2)">
<path d="M500 0H0V511H500V0Z" fill="#7DACC9"/>
<path d="M500 0H0V353.327H500V0Z" fill="#638AA1"/>
<path d="M150.169 166.866H20.533C15.01 166.866 10.533 162.291 10.533 156.646V24.158C10.533 18.5135 15.01 13.938 20.533 13.938H150.169C155.692 13.938 160.169 18.5135 160.169 24.158V156.646C160.169 162.291 155.692 166.866 150.169 166.866Z" fill="#C4DEF3"/>
<path d="M78.616 13.938C78.499 14.0617 78.384 14.1884 78.267 14.3121C68.522 24.6271 58.775 34.9411 49.019 45.246C35.949 59.0501 23.154 73.1128 10.533 87.3381V104.522C27.31 89.6846 43.784 74.4977 59.826 58.8263C69.969 48.917 80.102 38.9954 90.233 29.0738C95.427 23.9873 100.772 18.9928 106.055 13.938H78.616Z" fill="#EBF7FD"/>
<path d="M10.533 52.1925C18.175 45.9655 25.308 38.8043 32.666 32.5241C37.84 28.1091 43.051 23.738 48.294 19.4108C50.522 17.5712 52.767 15.7531 55.014 13.937H30.843C28.536 16.3459 26.239 18.7639 23.96 21.2014C19.639 25.8208 15.001 30.4648 10.533 35.2805V52.1925Z" fill="#EBF7FD"/>
<path d="M315.175 166.866H185.538C180.015 166.866 175.538 162.291 175.538 156.646V24.158C175.538 18.5135 180.015 13.938 185.538 13.938H315.174C320.697 13.938 325.174 18.5135 325.174 24.158V156.646C325.175 162.291 320.698 166.866 315.175 166.866Z" fill="#C4DEF3"/>
<path d="M243.622 13.938C243.505 14.0617 243.39 14.1884 243.273 14.3121C233.527 24.6271 223.781 34.9411 214.025 45.246C200.955 59.0501 188.16 73.1128 175.539 87.3381V104.522C192.316 89.6846 208.79 74.4977 224.832 58.8263C234.975 48.917 245.108 38.9954 255.239 29.0738C260.433 23.9873 265.778 18.9928 271.061 13.938H243.622Z" fill="#EBF7FD"/>
<path d="M175.538 52.1925C183.181 45.9655 190.313 38.8043 197.671 32.5241C202.844 28.1091 208.055 23.738 213.299 19.4108C215.527 17.5712 217.772 15.7531 220.019 13.937H195.848C193.541 16.3459 191.243 18.7639 188.965 21.2014C184.644 25.8208 180.006 30.4648 175.538 35.2805V52.1925Z" fill="#EBF7FD"/>
<path d="M480.181 166.866H350.544C345.021 166.866 340.544 162.291 340.544 156.646V24.158C340.544 18.5135 345.021 13.938 350.544 13.938H480.18C485.703 13.938 490.18 18.5135 490.18 24.158V156.646C490.181 162.291 485.704 166.866 480.181 166.866Z" fill="#C4DEF3"/>
<path d="M408.627 13.938C408.51 14.0617 408.395 14.1884 408.278 14.3121C398.532 24.6271 388.786 34.9411 379.03 45.246C365.96 59.0501 353.165 73.1128 340.544 87.3381V104.522C357.321 89.6846 373.795 74.4977 389.837 58.8263C399.981 48.917 410.113 38.9954 420.244 29.0738C425.438 23.9873 430.783 18.9928 436.066 13.938H408.627Z" fill="#EBF7FD"/>
<path d="M340.544 52.1925C348.186 45.9655 355.319 38.8043 362.677 32.5241C367.85 28.1091 373.061 23.738 378.305 19.4108C380.533 17.5712 382.778 15.7531 385.025 13.937H360.854C358.547 16.3459 356.25 18.7639 353.971 21.2014C349.65 25.8208 345.012 30.4648 340.544 35.2805V52.1925Z" fill="#EBF7FD"/>
<path d="M150.169 333.555H20.533C15.01 333.555 10.533 328.98 10.533 323.335V190.846C10.533 185.202 15.01 180.626 20.533 180.626H150.169C155.692 180.626 160.169 185.202 160.169 190.846V323.334C160.169 328.98 155.692 333.555 150.169 333.555Z" fill="#C4DEF3"/>
<path d="M78.616 180.626C78.499 180.75 78.384 180.877 78.267 181C68.522 191.315 58.775 201.629 49.019 211.934C35.949 225.739 23.154 239.801 10.533 254.026V271.21C27.31 256.373 43.784 241.186 59.826 225.515C69.969 215.605 80.102 205.684 90.233 195.762C95.427 190.676 100.772 185.681 106.055 180.626H78.616Z" fill="#EBF7FD"/>
<path d="M10.533 218.882C18.175 212.655 25.308 205.494 32.666 199.213C37.84 194.798 43.051 190.428 48.294 186.1C50.522 184.26 52.767 182.442 55.014 180.626H30.843C28.536 183.035 26.239 185.453 23.96 187.89C19.639 192.509 15.001 197.153 10.533 201.969V218.882Z" fill="#EBF7FD"/>
<path d="M315.175 333.555H185.538C180.015 333.555 175.538 328.98 175.538 323.335V190.846C175.538 185.202 180.015 180.626 185.538 180.626H315.174C320.697 180.626 325.174 185.202 325.174 190.846V323.334C325.175 328.98 320.698 333.555 315.175 333.555Z" fill="#C4DEF3"/>
<path d="M243.622 180.626C243.505 180.75 243.39 180.877 243.273 181C233.527 191.315 223.781 201.629 214.025 211.934C200.955 225.739 188.16 239.801 175.539 254.026V271.21C192.316 256.373 208.79 241.186 224.832 225.515C234.975 215.605 245.108 205.684 255.239 195.762C260.433 190.676 265.778 185.681 271.061 180.626H243.622Z" fill="#EBF7FD"/>
<path d="M175.538 218.882C183.181 212.655 190.313 205.494 197.671 199.213C202.844 194.798 208.055 190.428 213.299 186.1C215.527 184.26 217.772 182.442 220.019 180.626H195.848C193.541 183.035 191.243 185.453 188.965 187.89C184.644 192.509 180.006 197.153 175.538 201.969V218.882Z" fill="#EBF7FD"/>
<path d="M480.181 333.555H350.544C345.021 333.555 340.544 328.98 340.544 323.335V190.846C340.544 185.202 345.021 180.626 350.544 180.626H480.18C485.703 180.626 490.18 185.202 490.18 190.846V323.334C490.181 328.98 485.704 333.555 480.181 333.555Z" fill="#C4DEF3"/>
<path d="M408.627 180.626C408.51 180.75 408.395 180.877 408.278 181C398.532 191.315 388.786 201.629 379.03 211.934C365.96 225.739 353.165 239.801 340.544 254.026V271.21C357.321 256.373 373.795 241.186 389.837 225.515C399.981 215.605 410.113 205.684 420.244 195.762C425.438 190.676 430.783 185.681 436.066 180.626H408.627Z" fill="#EBF7FD"/>
<path d="M340.544 218.882C348.186 212.655 355.319 205.494 362.677 199.213C367.85 194.798 373.061 190.428 378.305 186.1C380.533 184.26 382.778 182.442 385.025 180.626H360.854C358.547 183.035 356.25 185.453 353.971 187.89C349.65 192.509 345.012 197.153 340.544 201.969V218.882Z" fill="white"/>
<path d="M87.131 467.276C110.696 467.276 129.8 463.837 129.8 459.595C129.8 455.354 110.696 451.915 87.131 451.915C63.5655 451.915 44.462 455.354 44.462 459.595C44.462 463.837 63.5655 467.276 87.131 467.276Z" fill="#638AA1"/>
<path d="M316.984 388.518C226.805 388.518 134.589 405.18 134.079 418.718C133.57 432.257 292.528 441.108 342.458 441.108C392.388 441.108 473.905 437.984 476.962 423.404C480.019 408.826 424.994 388.518 316.984 388.518Z" fill="#638AA1"/>
<path d="M196.469 418.805C176.97 419.964 168.502 417.528 166.226 415.715C158.95 409.92 154.288 394.468 157.471 372.448C160.655 350.429 176.572 334.591 176.572 334.591L193.286 328.409L202.041 334.204L196.469 418.805Z" fill="#261E21"/>
<path d="M196.749 339.999C172.558 339.999 170.29 418.804 196.749 418.804C223.208 418.805 223.964 339.999 196.749 339.999Z" fill="#1A1215"/>
<path d="M361.783 428.061C342.284 429.22 333.816 426.783 331.54 424.97C324.264 419.175 319.602 403.724 322.785 381.704C325.969 359.685 341.886 343.846 341.886 343.846L358.6 337.665L367.355 343.459L361.783 428.061Z" fill="#261E21"/>
<path d="M455.053 421.839C437.337 422.998 429.643 420.561 427.574 418.748C420.963 412.953 416.727 397.502 419.62 375.482C422.512 353.463 436.975 337.624 436.975 337.624L452.16 331.443L460.114 337.238L455.053 421.839Z" fill="#261E21"/>
<path d="M215.176 271.608C219.712 276.244 217.066 292.081 210.64 293.24C204.214 294.399 186.449 295.558 180.779 293.24C175.109 290.923 175.865 270.062 181.157 268.517C186.449 266.972 211.396 267.745 215.176 271.608Z" fill="#ED2424"/>
<path d="M196.126 288.606C196.126 288.606 234.341 189.973 249.044 173.874C254.336 168.079 348.455 163.443 367.354 167.693C386.253 171.942 348.455 312.943 348.455 312.943H268.7L227.877 305.603L196.126 288.606Z" fill="#C61C1D"/>
<path d="M453.579 349.255C427.163 349.255 426.698 389.817 425.187 389.817C423.675 389.817 379.45 393.681 379.45 393.681L362.063 349.255C336.36 349.255 334.848 382.091 334.848 382.091L283.064 385.568L280.796 345.392L284.954 321.055L318.217 301.354L331.069 296.718C331.069 296.718 338.251 246.886 348.079 216.368C357.907 185.85 365.466 168.853 367.356 167.694C369.246 166.535 424.432 185.851 430.102 195.894C436.392 207.037 446.356 280.494 449.001 292.47C449.001 292.47 466.388 301.355 471.302 324.919C476.216 348.484 476.594 376.684 476.594 376.684L464.498 374.366L453.579 349.255Z" fill="#AE1716"/>
<path d="M468.655 372.433C468.655 372.433 475.837 370.502 478.105 371.274C480.373 372.047 481.129 384.795 478.861 387.499C476.593 390.204 467.899 390.204 467.899 390.204L468.655 372.433Z" fill="#400000"/>
<path d="M128.466 371.661C128.466 371.661 123.552 321.036 137.538 309.843C151.523 298.65 193.102 288.992 196.126 288.606C199.15 288.219 329.934 296.332 331.068 296.718C332.202 297.105 305.365 310.239 298.183 325.305C291.001 340.371 294.403 380.546 294.403 380.546L171.557 393.294L137.916 382.477L128.466 371.661Z" fill="#ED2424"/>
<path d="M128.466 371.661C121.941 371.57 112.59 396.384 123.552 401.792C134.514 407.201 277.393 411.45 295.158 408.36C312.923 405.269 331.009 402.464 334.847 400.247C343.541 395.225 336.359 371.274 331.823 371.274C327.415 371.274 309.144 374.751 283.063 374.751C273.797 374.751 156.059 372.047 128.466 371.661Z" fill="#400000"/>
<path d="M170.99 312.749C167.135 313.875 162.485 323.18 162.485 326.657C162.485 330.134 172.124 352.732 173.258 354.47C174.392 356.209 231.657 356.209 233.358 355.629C235.059 355.05 246.115 330.134 246.115 327.236C246.115 324.339 240.729 313.329 237.894 312.17C235.059 311.011 174.959 311.59 170.99 312.749Z" fill="#400000"/>
<path d="M311.79 308.693C292.891 308.693 266.342 339.957 267.187 351.187C267.565 356.209 292.134 359.299 307.254 352.732C322.373 346.165 325.019 341.143 325.397 332.645C325.776 324.145 323.909 308.693 311.79 308.693Z" fill="#FFF79E"/>
<path d="M137.538 309.843C142.11 307.071 148.122 346.754 147.744 352.182C147.366 357.61 131.868 355.801 126.955 350.735C122.04 345.668 126.198 316.718 137.538 309.843Z" fill="#FFF79E"/>
<path d="M144.539 389.964C145.457 385.583 142.727 381.271 138.44 380.332C134.154 379.394 129.934 382.184 129.015 386.565C128.097 390.946 130.828 395.259 135.114 396.197C139.401 397.136 143.621 394.345 144.539 389.964Z" fill="#FFF79E"/>
<path d="M268.322 400.633C273.332 400.633 277.394 396.482 277.394 391.362C277.394 386.241 273.332 382.09 268.322 382.09C263.312 382.09 259.25 386.241 259.25 391.362C259.25 396.482 263.312 400.633 268.322 400.633Z" fill="#FFF79E"/>
<path d="M362.063 349.255C337.872 349.255 335.604 428.061 362.063 428.061C388.522 428.061 389.278 349.255 362.063 349.255Z" fill="#393134"/>
<path d="M362.356 369.808C350.783 369.808 349.698 407.508 362.356 407.508C375.014 407.508 375.376 369.808 362.356 369.808Z" fill="#7D6F72"/>
<path d="M362.444 375.989C354.666 375.989 353.936 401.328 362.444 401.328C370.952 401.327 371.195 375.989 362.444 375.989Z" fill="#AE1716"/>
<path d="M453.579 349.255C431.257 349.255 429.165 421.972 453.579 421.972C477.994 421.972 478.691 349.255 453.579 349.255Z" fill="#393134"/>
<path d="M453.85 368.219C443.171 368.219 442.17 403.007 453.85 403.007C465.53 403.006 465.864 368.219 453.85 368.219Z" fill="#7D6F72"/>
<path d="M453.931 373.922C446.754 373.922 446.081 397.304 453.931 397.304C461.782 397.304 462.006 373.922 453.931 373.922Z" fill="#AE1716"/>
<path d="M464.875 313.715C456.735 314.507 469.033 347.71 473.569 348.483C478.105 349.255 480.751 312.17 464.875 313.715Z" fill="#EF4935"/>
<path d="M391.168 307.534C387.278 310.184 390.79 316.033 394.192 316.033C397.594 316.033 409.311 315.647 411.579 314.101C413.847 312.556 414.225 306.761 410.823 306.375C407.421 305.989 394.57 305.216 391.168 307.534Z" fill="#400000"/>
<path d="M252.068 180.054C249.85 181.673 211.623 274.312 211.245 277.016C210.867 279.72 318.889 283.584 322.373 283.584C325.775 283.584 334.847 231.433 339.76 214.821C344.674 198.211 348.832 178.509 347.32 176.191C345.809 173.873 262.652 172.328 252.068 180.054Z" fill="#C4DEF3"/>
<path d="M370.378 183.917C361.684 193.961 342.029 292.082 342.407 294.786C342.785 297.49 411.201 296.331 413.469 294.399C415.737 292.468 413.091 198.596 412.335 195.119C411.579 191.643 373.938 179.805 370.378 183.917Z" fill="#C4DEF3"/>
<path d="M340.517 277.789C335.981 282.425 338.627 298.263 345.053 299.421C351.479 300.58 369.244 301.739 374.914 299.421C380.584 297.104 379.828 276.244 374.536 274.698C369.244 273.153 344.297 273.926 340.517 277.789Z" fill="#ED2424"/>
<path d="M336.737 300.194C337.004 302.106 339.005 304.83 340.517 304.057C342.029 303.285 350.345 299.035 351.479 295.172C352.613 291.309 346.565 287.446 343.919 289.377C341.273 291.31 336.359 297.49 336.737 300.194Z" fill="#400000"/>
<path d="M419.139 195.893C417.581 195.893 421.407 290.924 421.785 292.855C422.163 294.787 439.928 293.241 441.062 292.469C442.196 291.696 426.698 195.893 419.139 195.893Z" fill="#C4DEF3"/>
<path d="M313.184 174.307C300.135 183.171 287.072 192.016 274.148 201.07C258.721 211.878 243.067 222.664 228.306 234.528C223.845 245.283 219.609 255.633 216.472 263.435C240.821 248.617 264.827 233.193 289.037 218.139C303.537 209.123 317.918 199.902 332.361 190.792C337.385 187.624 342.411 184.461 347.423 181.272C347.721 178.625 347.72 176.8 347.321 176.19C346.681 175.21 331.397 174.366 313.184 174.307Z" fill="#EBF7FD"/>
<path d="M238.21 210.889C247.455 204.179 256.093 196.053 264.894 189.485C271.71 184.397 278.658 179.496 285.774 174.858C278.038 175.222 270.803 175.783 264.954 176.59C263.484 177.808 262.018 179.028 260.558 180.254C255.53 184.477 250.645 188.868 245.779 193.283C243.593 198.266 240.993 204.324 238.21 210.889Z" fill="#EBF7FD"/>
<path d="M362.476 204.445C372.097 198.094 381.982 192.369 391.879 186.523C388.83 185.651 385.767 184.876 382.936 184.28C376.536 188.263 370.434 192.892 364.532 197.655C363.863 199.752 363.175 202.031 362.476 204.445Z" fill="#EBF7FD"/>
<path d="M412.741 201.31C412.581 197.832 412.44 195.603 412.335 195.12C412.101 194.042 408.319 192.162 403.111 190.201C396.905 193.897 390.764 197.686 384.782 201.76C375.36 208.175 366.411 215.204 357.658 222.5C356.641 226.57 355.628 230.768 354.635 234.997C366.485 227.1 378.447 219.319 390.788 212.262C397.705 208.305 405.339 204.989 412.741 201.31Z" fill="#EBF7FD"/>
<path d="M418.876 212.75C420.857 211.072 422.975 209.598 425.139 208.182C424.578 206.288 424.024 204.565 423.483 203.047C421.838 204.19 420.266 205.453 418.789 206.817C418.807 208.628 418.837 210.613 418.876 212.75Z" fill="#EBF7FD"/>
<path d="M430.704 230.858C430.022 227.675 429.331 224.579 428.638 221.626C428.362 221.871 428.087 222.116 427.811 222.361C424.954 224.888 422.12 227.439 419.304 230.009C419.373 232.354 419.446 234.746 419.523 237.164C423.281 235.125 426.989 233.002 430.704 230.858Z" fill="#EBF7FD"/>
<path d="M209.25 329.14C209.25 327.823 208.271 326.701 207.281 325.809C205.973 324.628 204.04 323.781 202.206 323.554C199.517 323.221 197.403 323.781 195.27 325.258C193.79 326.283 192.864 328.306 192.927 329.938C193.004 331.922 194.315 333.418 196.089 334.492C199.096 336.313 203.566 335.84 206.26 333.844C207.609 332.845 208.788 331.588 209.088 330.105C209.185 329.782 209.25 329.458 209.25 329.14Z" fill="#ED2424"/>
<path d="M363.647 359.711C363.539 358.606 363.325 357.5 363.112 356.412C362.845 355.05 360.727 355.069 360.447 356.412C360.219 357.505 359.863 358.593 359.778 359.711C359.673 361.085 360.058 362.2 360.732 363.377C361.499 364.718 363.628 364.161 363.605 362.582C363.59 361.606 363.742 360.688 363.647 359.711Z" fill="#2B2426"/>
<path d="M365.381 417.523C365.221 416.518 365.134 415.227 364.536 414.392C364.107 413.793 363.171 413.474 362.616 414.14C361.918 414.977 361.879 415.846 361.848 416.909C361.834 417.401 361.823 417.893 361.791 418.385C361.752 418.995 362.1 419.628 362.151 420.239C362.259 421.516 363.933 422.181 364.627 420.925C365.239 419.818 365.583 418.792 365.381 417.523Z" fill="#2B2426"/>
<path d="M355.259 408.269C355.491 408.3 355.384 408.285 354.94 408.225C354.659 408.226 354.398 408.298 354.155 408.441C353.842 408.608 353.569 408.844 353.284 409.058C353.003 409.268 352.659 409.467 352.415 409.718C352.104 410.037 351.912 410.388 351.707 410.778C351.121 411.886 352.089 413.458 353.388 413.012C353.681 412.911 354.111 412.824 354.355 412.642C354.716 412.373 355.02 412.089 355.327 411.762C355.957 411.09 356.529 410.515 356.483 409.517C356.447 408.767 355.945 408.363 355.259 408.269Z" fill="#2B2426"/>
<path d="M351.083 398.881C350.291 398.521 349.565 398.449 348.798 398.936C348.38 399.2 347.949 399.448 347.501 399.654C346.444 400.14 346.757 401.893 347.818 402.137C349.116 402.434 350.992 402.682 351.669 401.166C352.005 400.412 351.953 399.277 351.083 398.881Z" fill="#2B2426"/>
<path d="M350.499 386.496C349.857 385.099 348.188 385.335 346.982 385.662C345.811 385.979 345.713 387.922 346.982 388.176C347.294 388.238 347.654 388.322 347.918 388.445C348.668 388.792 349.269 388.844 350.003 388.428C350.705 388.031 350.813 387.18 350.499 386.496Z" fill="#2B2426"/>
<path d="M350.665 376.765C350.456 376.145 350.13 375.247 349.498 374.949C348.872 374.654 348.293 374.483 347.605 374.425C346.451 374.327 345.998 376.131 347.015 376.652C347.336 376.816 347.531 376.962 347.778 377.228C348.114 377.592 348.639 377.752 349.027 378.054C349.809 378.664 350.965 377.657 350.665 376.765Z" fill="#2B2426"/>
<path d="M355.44 365.37C354.87 364.722 354.256 364.114 353.763 363.4C353.443 362.937 352.946 362.667 352.382 362.825C351.789 362.992 351.286 363.727 351.528 364.362C351.858 365.229 352.269 366.043 352.71 366.855C352.926 367.253 353.118 367.833 353.46 368.135C353.775 368.413 354.118 368.652 354.431 368.932C355.145 369.568 356.487 369.203 356.427 368.087C356.369 366.986 356.175 366.206 355.44 365.37Z" fill="#2B2426"/>
<path d="M370.904 362.293C370.832 361.305 369.359 360.974 369.129 362.048C368.997 362.666 368.809 363.236 368.51 363.792C368.194 364.379 368.078 364.993 367.803 365.594C367.459 366.347 368.226 367.445 369.039 366.857C369.74 366.35 370.371 365.823 370.667 364.977C370.956 364.152 370.966 363.154 370.904 362.293Z" fill="#2B2426"/>
<path d="M374.743 370.438C374.296 370.699 373.748 370.883 373.38 371.259C372.968 371.68 372.781 372.364 372.493 372.879C371.765 374.182 373.175 375.396 374.384 374.811C374.902 374.561 375.52 374.283 375.93 373.864C376.431 373.352 376.522 372.592 376.618 371.91C376.768 370.83 375.807 369.817 374.743 370.438Z" fill="#2B2426"/>
<path d="M378.785 384.776C378.452 384.595 378.127 384.406 377.774 384.268C377.351 384.102 376.958 384.15 376.521 384.185C375.684 384.252 374.98 384.851 374.98 385.761C374.98 386.671 375.684 387.27 376.521 387.336C376.958 387.371 377.351 387.419 377.774 387.253C378.127 387.115 378.452 386.926 378.785 386.745C379.512 386.352 379.512 385.169 378.785 384.776Z" fill="#2B2426"/>
<path d="M376.872 399.119C376.599 398.494 376.204 398.052 375.76 397.548C374.611 396.243 372.604 398.294 373.881 399.468C374.374 399.922 374.808 400.326 375.418 400.605C376.419 401.064 377.32 400.143 376.872 399.119Z" fill="#2B2426"/>
<path d="M375.275 410.519C375.128 409.983 375.015 409.38 374.686 408.93C374.344 408.462 373.985 408.006 373.622 407.556C373.083 406.887 371.991 406.839 371.303 407.251C370.461 407.754 370.015 409.053 370.617 409.926C370.85 410.264 371.079 410.607 371.303 410.951C371.641 411.473 372.221 411.915 372.522 412.158C373.113 412.634 373.822 412.838 374.519 412.422C375.153 412.041 375.474 411.247 375.275 410.519Z" fill="#2B2426"/>
<path d="M455.449 358.576C455.347 357.528 455.143 356.478 454.941 355.445C454.688 354.153 452.678 354.171 452.412 355.445C452.196 356.482 451.858 357.515 451.777 358.576C451.678 359.879 452.043 360.937 452.682 362.055C453.41 363.327 455.43 362.799 455.408 361.301C455.395 360.374 455.54 359.503 455.449 358.576Z" fill="#2B2426"/>
<path d="M457.094 413.431C456.942 412.477 456.859 411.253 456.292 410.461C455.885 409.893 454.997 409.589 454.47 410.221C453.808 411.015 453.771 411.839 453.741 412.847C453.727 413.315 453.717 413.781 453.687 414.248C453.65 414.828 453.98 415.428 454.029 416.007C454.132 417.218 455.72 417.85 456.379 416.657C456.96 415.609 457.286 414.636 457.094 413.431Z" fill="#2B2426"/>
<path d="M447.49 404.65C447.71 404.679 447.609 404.666 447.187 404.608C446.921 404.609 446.673 404.677 446.442 404.813C446.145 404.971 445.886 405.195 445.615 405.398C445.348 405.597 445.022 405.787 444.79 406.024C444.495 406.327 444.313 406.66 444.118 407.03C443.562 408.083 444.481 409.574 445.713 409.151C445.991 409.055 446.399 408.973 446.631 408.799C446.973 408.543 447.262 408.274 447.553 407.964C448.151 407.327 448.693 406.782 448.65 405.834C448.617 405.123 448.141 404.74 447.49 404.65Z" fill="#2B2426"/>
<path d="M443.528 395.743C442.777 395.401 442.088 395.333 441.36 395.794C440.964 396.045 440.554 396.281 440.129 396.476C439.127 396.937 439.423 398.6 440.43 398.831C441.661 399.113 443.442 399.349 444.084 397.911C444.402 397.195 444.354 396.118 443.528 395.743Z" fill="#2B2426"/>
<path d="M442.974 383.991C442.365 382.665 440.781 382.889 439.637 383.2C438.526 383.5 438.433 385.344 439.637 385.585C439.933 385.645 440.275 385.724 440.525 385.841C441.237 386.171 441.807 386.22 442.503 385.824C443.169 385.447 443.272 384.64 442.974 383.991Z" fill="#2B2426"/>
<path d="M443.132 374.757C442.934 374.169 442.624 373.316 442.024 373.034C441.43 372.754 440.88 372.593 440.227 372.536C439.132 372.443 438.702 374.155 439.667 374.65C439.971 374.806 440.157 374.943 440.391 375.197C440.71 375.542 441.207 375.692 441.576 375.98C442.319 376.56 443.416 375.603 443.132 374.757Z" fill="#2B2426"/>
<path d="M447.663 363.945C447.122 363.33 446.539 362.754 446.071 362.076C445.768 361.637 445.295 361.381 444.761 361.531C444.199 361.69 443.721 362.387 443.951 362.99C444.264 363.813 444.654 364.584 445.073 365.355C445.278 365.733 445.46 366.283 445.784 366.569C446.083 366.833 446.408 367.059 446.706 367.325C447.383 367.929 448.657 367.582 448.6 366.523C448.543 365.478 448.36 364.737 447.663 363.945Z" fill="#2B2426"/>
<path d="M462.335 361.025C462.267 360.086 460.869 359.774 460.651 360.792C460.525 361.378 460.348 361.92 460.064 362.446C459.764 363.003 459.654 363.586 459.393 364.156C459.066 364.87 459.795 365.913 460.566 365.355C461.231 364.873 461.83 364.373 462.111 363.57C462.385 362.79 462.394 361.842 462.335 361.025Z" fill="#2B2426"/>
<path d="M465.978 368.754C465.554 369.001 465.034 369.176 464.685 369.533C464.294 369.932 464.116 370.581 463.843 371.07C463.152 372.305 464.49 373.458 465.637 372.903C466.128 372.665 466.715 372.401 467.104 372.005C467.579 371.519 467.666 370.798 467.757 370.151C467.9 369.126 466.988 368.164 465.978 368.754Z" fill="#2B2426"/>
<path d="M469.813 382.358C469.497 382.186 469.188 382.007 468.854 381.876C468.452 381.719 468.08 381.765 467.665 381.798C466.87 381.861 466.202 382.429 466.202 383.293C466.202 384.155 466.87 384.725 467.665 384.788C468.08 384.821 468.453 384.867 468.854 384.709C469.189 384.579 469.498 384.399 469.813 384.228C470.503 383.854 470.503 382.732 469.813 382.358Z" fill="#2B2426"/>
<path d="M467.998 395.969C467.738 395.377 467.364 394.956 466.942 394.479C465.852 393.24 463.947 395.187 465.159 396.301C465.627 396.731 466.038 397.114 466.617 397.379C467.568 397.813 468.423 396.94 467.998 395.969Z" fill="#2B2426"/>
<path d="M466.483 406.786C466.344 406.277 466.236 405.705 465.924 405.277C465.6 404.834 465.259 404.401 464.914 403.973C464.402 403.337 463.366 403.292 462.714 403.683C461.915 404.161 461.492 405.393 462.063 406.221C462.284 406.542 462.501 406.867 462.714 407.194C463.035 407.689 463.585 408.109 463.87 408.339C464.431 408.79 465.104 408.985 465.765 408.588C466.367 408.229 466.671 407.475 466.483 406.786Z" fill="#2B2426"/>
<path d="M287.556 347.099C291.509 347.693 295.483 346.369 299.2 344.868C306.146 342.061 316.62 333.567 315.787 324.852C315.418 320.987 312.43 319.508 309.037 319.297C300.711 318.779 290.677 323.852 285.075 330.047C282.773 332.593 281.101 335.866 280.997 339.331C280.942 341.16 281.359 343.066 282.493 344.484C283.717 346.014 285.641 346.811 287.556 347.099Z" fill="white"/>
<path d="M138.039 343.588C134.747 343.57 131.505 341.569 130.079 338.535C129.003 336.247 128.963 333.612 128.944 331.074C128.928 328.978 128.929 326.799 129.807 324.904C130.047 324.385 130.355 323.892 130.767 323.502C137.279 317.34 146.574 338.694 141.175 342.716C140.284 343.38 139.141 343.594 138.039 343.588Z" fill="white"/>
<path d="M159.295 314.281C155.165 313.13 150.86 313.259 146.768 311.87C146.115 311.649 145.728 312.646 146.307 312.987C150.116 315.232 154.797 315.473 159.082 315.882C159.998 315.97 160.142 314.517 159.295 314.281Z" fill="#F16353"/>
<path d="M285.237 312.281C274.143 314.577 262.757 315.058 251.501 316.263C250.817 316.337 250.817 317.276 251.501 317.349C257.726 318.018 264.133 317.188 270.389 317.087C275.736 317 281.2 316.708 286.057 314.268C287.196 313.695 286.359 312.049 285.237 312.281Z" fill="#F16353"/>
<path d="M345.241 328.797C344.994 321.998 344.747 315.201 344.499 308.403C344.458 307.265 342.813 307.265 342.771 308.403L342.099 326.892C341.904 332.244 340.403 339.35 342.076 344.479C342.589 346.052 344.681 346.052 345.194 344.479C346.707 339.844 345.417 333.629 345.241 328.797Z" fill="#8E0B07"/>
<path d="M422.758 343.302C422.713 330.313 422.548 317.309 421.694 304.346C421.636 303.472 420.423 303.472 420.365 304.346C419.51 317.319 419.445 330.305 419.3 343.302C419.167 355.29 417.836 368.454 419.918 380.279C420.117 381.407 421.94 381.407 422.139 380.279C424.228 368.417 422.799 355.326 422.758 343.302Z" fill="#8E0B07"/>
<path d="M246.474 296.69C244.642 298.25 243.237 300.308 241.613 302.087C239.762 304.115 237.71 305.944 235.886 307.994C235.355 308.59 236.065 309.676 236.771 309.159C238.787 307.682 240.625 305.975 242.452 304.267C244.468 302.383 246.772 300.378 247.894 297.795C248.308 296.839 247.289 295.996 246.474 296.69Z" fill="#C61C1D"/>
<path d="M189.088 296.738C186.651 300.51 183.708 304 181.662 308.021C181.333 308.666 182.245 309.217 182.618 308.592C184.936 304.701 188.488 301.666 190.312 297.468C190.678 296.627 189.601 295.945 189.088 296.738Z" fill="#C61C1D"/>
<path d="M364.837 278.133C362.876 277.562 360.592 278.582 358.578 278.724C356.265 278.886 353.82 278.569 351.575 279.252C350.539 279.568 350.584 281.012 351.575 281.347C354.034 282.179 356.79 282.434 359.356 282.735C361.799 283.022 364.385 283.131 365.976 280.993C366.74 279.964 365.91 278.446 364.837 278.133Z" fill="#F16353"/>
<path d="M373.301 280.262C372.603 279.106 371.184 278.871 369.96 279.099C368.992 279.28 368.873 280.538 369.423 281.18C370.236 282.129 371.776 282.66 372.872 281.934C373.408 281.579 373.655 280.849 373.301 280.262Z" fill="#F16353"/>
<path d="M186.718 272.337C186.52 272.181 186.325 272.022 186.116 271.88C185.738 271.62 185.257 271.647 184.824 271.632C184.221 271.612 183.655 271.788 183.104 272.014C181.824 272.541 181.824 274.152 183.104 274.678C183.662 274.907 184.215 275.066 184.824 275.06C185.112 275.057 185.444 275.062 185.719 274.984C186.115 274.873 186.402 274.605 186.718 274.355C187.269 273.92 187.269 272.773 186.718 272.337Z" fill="#F16353"/>
<path d="M199.102 272.703C196.915 271.786 194.002 272.513 191.685 272.504C190.46 272.499 190.142 274.477 191.391 274.727C193.705 275.19 196.835 276.093 199.102 275.148C200.277 274.657 200.274 273.195 199.102 272.703Z" fill="#F16353"/>
<path d="M69.045 447.62C69.045 447.62 68.408 449.572 63.313 448.14C58.218 446.708 53.378 443.974 50.194 448.4C47.01 452.827 50.737 459.668 53.378 459.986C55.543 460.246 75.795 459.986 78.088 459.725C80.381 459.465 81.145 448.66 79.234 446.447C77.324 444.235 69.045 447.62 69.045 447.62Z" fill="#0F1821"/>
<path d="M106.746 447.49C106.746 447.49 106.731 449.573 111.826 448.141C116.921 446.709 121.761 443.975 124.945 448.401C128.129 452.828 124.402 459.669 121.761 459.987C119.596 460.247 99.344 459.987 97.051 459.726C94.758 459.466 93.994 448.661 95.905 446.448C97.815 444.235 106.746 447.49 106.746 447.49Z" fill="#0F1821"/>
<path d="M58.218 323.956C58.218 323.956 58.345 346.085 58.855 370.037C59.364 393.988 66.625 446.578 67.134 447.359C67.644 448.14 79.616 448.14 80.635 447.879C81.654 447.619 84.187 373.354 84.456 367.172C84.711 361.314 85.602 355.586 86.621 355.066C87.64 354.546 89.805 354.676 90.06 355.978C90.315 357.28 91.758 363.268 91.97 367.303C92.109 369.954 93.753 433.822 93.965 447.359C94.004 449.838 107.636 448.14 108.4 447.359C109.164 446.578 118.08 389.693 117.316 371.208C116.552 352.723 115.193 323.608 115.193 323.608L87.002 309.376L58.218 323.956Z" fill="#2B353F"/>
<path d="M188.136 251.839C188.136 251.839 193.995 247.674 195.523 242.727C197.052 237.781 200.363 236.219 201.892 237C203.42 237.781 202.402 242.207 201.382 244.029C201.382 244.029 211.572 237.781 213.864 237.521C216.157 237.26 217.94 241.687 211.062 245.07C211.062 245.07 220.487 241.426 222.016 244.29C223.544 247.153 218.45 250.278 212.59 252.1C212.59 252.1 218.449 252.1 218.449 255.224C218.449 258.348 209.788 257.568 204.438 257.568C199.088 257.568 191.191 261.212 191.191 261.212L188.136 251.839Z" fill="#FBBE7C"/>
<path d="M112.648 223.635C119.101 229.71 144.576 260.951 146.953 263.034C149.331 265.117 187.032 249.496 188.731 249.496C190.429 249.496 194.505 260.951 194.165 262.339C193.825 263.728 155.444 288.374 147.632 288.721C139.82 289.069 114.006 263.728 110.27 260.95C106.534 258.175 112.648 223.635 112.648 223.635Z" fill="white"/>
<path d="M66.115 211.486C66.115 211.486 59.662 215.651 53.718 219.469C47.774 223.288 39.962 252.273 39.962 252.273L33.509 291.498L57.794 307.987L80.041 323.434C80.041 323.434 103.307 325.865 115.195 323.608C115.195 323.608 112.987 225.198 112.648 223.635C112.308 222.072 94.816 213.742 94.816 213.742L89.551 223.635L80.393 226.412L72.058 224.676L66.115 211.486Z" fill="white"/>
<path d="M75.246 235.796C75.246 235.796 70.463 255.261 69.176 258.768C67.888 262.276 95.666 268.589 95.666 268.589C95.666 268.589 85.18 238.953 84.629 234.743L75.246 235.796Z" fill="#EE6A3C"/>
<path d="M70.87 230.577C70.87 230.577 71.889 238.561 80.041 238.735C88.193 238.909 90.4 230.057 90.4 230.057L80.393 226.413L70.87 230.577Z" fill="#C05530"/>
<path d="M58.812 247.588C57.31 248.611 32.319 319.27 32.149 322.22C31.979 325.171 78.172 340.791 80.21 340.618C82.248 340.445 107.892 269.11 107.892 265.812C107.893 262.514 60.341 246.545 58.812 247.588Z" fill="#9C3D22"/>
<path d="M69.512 197.08C69.512 197.08 67.983 207.321 67.814 209.404C67.644 211.487 67.474 219.47 67.474 219.47L74.946 225.893L81.06 226.587L90.231 225.893L94.477 219.818L93.253 208.71C93.253 208.71 91.251 198.469 91.081 195.345C90.91 192.22 69.512 197.08 69.512 197.08Z" fill="#E6AE84"/>
<path d="M54.27 175.731C60.3197 175.731 65.224 170.02 65.224 162.974C65.224 155.929 60.3197 150.218 54.27 150.218C48.2203 150.218 43.316 155.929 43.316 162.974C43.316 170.02 48.2203 175.731 54.27 175.731Z" fill="#E6AE84"/>
<path d="M110.95 175.731C117 175.731 121.904 170.02 121.904 162.974C121.904 155.929 117 150.218 110.95 150.218C104.9 150.218 99.996 155.929 99.996 162.974C99.996 170.02 104.9 175.731 110.95 175.731Z" fill="#E6AE84"/>
<path d="M51.085 157.854C51.085 157.854 49.047 203.154 83.182 203.154C117.317 203.154 117.317 141.191 117.317 141.191L108.146 120.103L87.002 117.76L56.433 118.801L48.027 133.901L51.085 157.854Z" fill="#FBBE7C"/>
<path d="M51.34 162.02C55.161 160.718 50.576 131.039 60.511 127.654C70.446 124.269 72.739 131.559 85.73 131.559C98.722 131.559 101.345 126.44 106.619 128.956C114.261 132.6 115.602 152.762 113.37 161.89C112.606 165.014 117.191 170.221 120.757 160.068C124.323 149.914 131.838 127.394 116.809 118.282C116.809 118.282 128.018 108.389 122.668 97.7144C117.318 87.0407 68.663 92.5073 58.983 107.868C58.983 107.868 49.557 104.483 44.717 119.324C39.877 134.163 42.61 164.995 51.34 162.02Z" fill="#883430"/>
<path d="M67.481 208.709C67.481 208.709 76.114 223.809 80.339 226.412C80.339 226.412 68.947 234.005 66.195 234.222C63.99 234.397 59.398 214.957 67.481 208.709Z" fill="#CAC8D1"/>
<path d="M93.252 208.709C93.252 208.709 84.619 223.809 80.394 226.412C80.394 226.412 91.786 234.005 94.538 234.222C96.742 234.397 101.334 214.957 93.252 208.709Z" fill="#CAC8D1"/>
<path d="M76.517 304.342C76.517 304.342 79.829 305.123 84.032 303.431C88.235 301.738 89.636 304.342 86.707 307.075C86.707 307.075 97.661 304.732 99.062 306.685C100.463 308.637 97.406 309.939 97.406 309.939C97.406 309.939 101.1 309.027 101.609 311.241C102.118 313.453 98.043 314.495 98.043 314.495C98.043 314.495 100.845 315.407 100.208 317.88C99.571 320.353 89.127 321.004 84.159 319.963C79.192 318.921 72.696 314.885 72.696 314.885L76.517 304.342Z" fill="#FBBE7C"/>
<path d="M49.132 254.703C49.132 254.703 42.764 281.388 42.764 283.124C42.764 284.859 77.579 301.912 78.428 302.78C79.277 303.647 75.074 316.665 73.715 317.36C72.356 318.054 29.894 308.838 24.507 299.829C22.639 296.705 21.79 289.763 21.96 287.332C22.13 284.902 35.376 236.305 37.754 231.965C40.132 227.626 53.718 219.468 53.718 219.468L49.132 254.703Z" fill="white"/>
<path d="M106.619 128.956C114.261 132.6 115.602 152.762 113.37 161.89C112.79 164.259 115.287 167.82 118.083 164.977C117.632 164.003 117.224 163.006 117.187 161.939C117.145 160.713 117.601 159.534 117.982 158.37C119.98 152.26 120.034 145.663 119.539 139.24C119.207 134.932 118.587 130.494 116.367 126.815C114.147 123.136 109.947 120.396 105.785 121.162C107.652 119.166 106.107 115.546 103.615 114.478C101.123 113.41 98.282 114.076 95.662 114.754C96.586 112.347 97.356 109.205 95.445 107.511C94.144 106.359 92.2 106.51 90.501 106.799C80.218 108.547 70.38 112.962 62.162 119.515C59.057 118.989 55.907 120.768 53.96 123.296C52.014 125.825 51.069 128.996 50.351 132.128C48.658 139.511 48 147.141 48.403 154.713C48.5 156.526 48.607 158.52 47.531 159.965C47.397 160.145 47.237 160.303 47.059 160.438C48.267 161.941 49.697 162.58 51.34 162.02C55.161 160.718 50.576 131.039 60.511 127.654C70.446 124.269 72.739 131.559 85.73 131.559C98.722 131.56 101.345 126.441 106.619 128.956Z" fill="#66221D"/>
<path d="M111.515 97.137C104.561 92.4624 91.845 95.2831 84.883 98.761C83.828 99.2883 84.339 101.044 85.476 100.997C89.396 100.837 93.265 100.134 97.195 100.009C101.707 99.8668 105.983 100.953 110.44 101.192C112.678 101.313 113.18 98.2571 111.515 97.137Z" fill="#AC4541"/>
<path d="M121.387 101.523C121.234 100.632 120.746 99.7799 120.015 99.2556C119.48 98.8724 118.894 98.5791 118.34 98.2275C117.373 97.6133 115.997 98.6291 116.375 99.7717C116.631 100.544 117.057 101.159 117.64 101.711C117.919 101.975 118.2 102.214 118.529 102.411C118.649 102.482 118.762 102.564 118.874 102.647C118.919 102.679 119.291 102.912 119.191 102.831C120.238 103.68 121.623 102.9 121.387 101.523Z" fill="#AC4541"/>
<path d="M71.202 145.257C68.927 145.095 65.801 146.491 64.657 148.568C63.88 149.977 65.147 151.613 66.662 151.232C68.032 150.889 69.051 150.439 70.5 150.529C71.411 150.586 72.523 151.887 73.531 152.317C74.668 152.801 75.789 151.797 76.15 150.797C77.346 147.488 73.897 145.448 71.202 145.257Z" fill="#66221D"/>
<path d="M103.12 150.761C102.587 147.799 100.389 146.412 97.606 146.172C95.053 145.952 92.344 147.587 91.642 150.147C91.118 152.057 93.341 153.07 94.669 151.948C96.447 150.446 98.755 151.604 100.431 152.874C101.86 153.958 103.375 152.18 103.12 150.761Z" fill="#66221D"/>
<path d="M73.437 157.446C72.915 155.969 71.924 154.932 70.495 155.127C70.39 155.142 70.294 155.167 70.194 155.189C69.77 155.14 69.345 155.336 69.019 155.625C67.005 156.779 66.366 159.574 67.164 161.88C67.613 163.176 68.571 165.033 70.088 165.242C73.532 165.714 74.546 160.585 73.437 157.446Z" fill="#66221D"/>
<path d="M69.171 157.213C67.58 157.213 67.58 159.735 69.171 159.735C70.762 159.735 70.762 157.213 69.171 157.213Z" fill="white"/>
<path d="M99.591 157.446C99.069 155.969 98.078 154.932 96.649 155.127C96.544 155.142 96.448 155.167 96.348 155.189C95.924 155.14 95.499 155.336 95.173 155.625C93.159 156.779 92.52 159.574 93.318 161.88C93.766 163.176 94.725 165.033 96.242 165.242C99.686 165.714 100.699 160.585 99.591 157.446Z" fill="#66221D"/>
<path d="M95.325 157.213C93.734 157.213 93.734 159.735 95.325 159.735C96.916 159.735 96.916 157.213 95.325 157.213Z" fill="white"/>
<path d="M88.514 165.646C87.27 162.86 81.728 161.391 81.815 165.708C81.837 166.801 83.35 166.762 83.447 165.708C83.623 163.79 86.105 165.763 86.443 166.71C87.364 169.289 84.069 168.684 82.631 168.673C81.398 168.664 81.114 170.259 82.038 170.909C83.578 171.992 85.814 171.796 87.375 170.824C89.205 169.685 89.333 167.48 88.514 165.646Z" fill="#F8A562"/>
<path d="M73.463 179.342C75.189 177.357 92.118 177.031 94.238 178.908C96.358 180.786 92.881 192.663 82.932 191.33C74.311 190.175 72.332 180.642 73.463 179.342Z" fill="#EF4B3E"/>
<path d="M94.238 178.908C92.118 177.031 75.189 177.357 73.463 179.342C72.817 180.085 73.194 183.515 75.239 186.535C77.464 184.71 80.079 183.379 82.857 182.711C83.772 182.491 84.713 182.339 85.65 182.413C86.484 182.478 87.294 182.72 88.096 182.96C89.949 183.516 91.834 184.087 93.443 185.18C93.514 185.228 93.581 185.284 93.651 185.336C95.012 182.577 95.185 179.746 94.238 178.908Z" fill="#C42629"/>
<path d="M200.837 246.535C200.758 246.324 200.521 246.178 200.311 246.316C199.871 246.605 199.609 247.227 199.238 247.616C198.779 248.098 198.268 248.597 197.714 248.962C197.294 249.238 197.557 249.999 198.067 249.818C198.789 249.561 199.466 249.211 199.979 248.621C200.395 248.141 201.093 247.223 200.837 246.535Z" fill="#E6AE84"/>
<path d="M204.777 253.057C203.409 251.64 202.108 249.508 202.557 247.435C202.687 246.835 201.806 246.38 201.539 246.996C200.473 249.455 201.631 252.867 203.981 254.111C204.635 254.458 205.315 253.614 204.777 253.057Z" fill="#E6AE84"/>
<path d="M95.702 309.823C94.322 310.105 92.972 309.694 91.589 309.75C91.064 309.771 91.09 310.503 91.589 310.563C93.011 310.734 94.482 310.88 95.882 310.49C96.307 310.372 96.126 309.737 95.702 309.823Z" fill="#E6AE84"/>
<path d="M96.939 314.347C95.396 314.243 93.584 314.296 92.25 313.409C91.968 313.222 91.625 313.666 91.888 313.888C93.342 315.109 95.143 315.201 96.939 315.08C97.4 315.048 97.4 314.378 96.939 314.347Z" fill="#E6AE84"/>
<path d="M112.37 337.051C109.971 335.501 106.582 333.767 106.118 330.579C106.021 329.912 105.129 330.169 105.063 330.725C104.651 334.15 108.943 337.607 111.757 338.54C112.643 338.832 113.112 337.531 112.37 337.051Z" fill="#161F28"/>
<path d="M90.948 328.641C90.982 328.209 90.274 328.109 90.205 328.539C89.411 333.512 89.31 338.537 89.524 343.558C87.563 340.945 86.755 338.012 85.477 334.996C85.343 334.68 84.809 334.909 84.931 335.231C86.076 338.24 86.58 342.617 89.349 344.613C89.427 344.67 89.503 344.684 89.573 344.681C89.618 345.539 89.669 346.398 89.729 347.256C89.771 347.858 90.606 347.86 90.644 347.256C91.04 341.057 90.461 334.842 90.948 328.641Z" fill="#161F28"/>
<path d="M64.914 337.697C64.534 338.118 64.183 338.566 63.801 338.986C63.37 339.461 62.873 339.782 62.338 340.119C62.011 340.324 62.113 340.965 62.549 340.915C63.919 340.755 64.712 339.308 65.533 338.331C65.897 337.898 65.3 337.269 64.914 337.697Z" fill="#161F28"/>
<path d="M98.17 263.473C99.685 264.2 101.171 264.996 102.583 265.916C103.183 266.307 103.786 266.738 104.161 267.355C105.19 269.052 103.93 271.43 102.119 272.178C100.309 272.926 98.25 272.492 96.387 271.894C93.414 270.939 90.563 269.589 87.929 267.888C86.556 267.001 85.168 265.921 84.629 264.356C84.09 262.79 84.836 260.676 86.436 260.39C86.891 260.309 87.358 260.379 87.815 260.45C89.642 260.732 91.475 261.015 93.254 261.528C94.947 262.016 96.578 262.708 98.17 263.473Z" fill="#BF4D2E"/>
<path d="M76.998 261.426C77.087 261.653 77.213 261.88 77.381 262.102C79.439 264.831 83.418 261.561 81.583 258.852C79.756 256.155 75.987 258.841 76.998 261.426Z" fill="#BF4D2E"/>
<mask id="mask0_1_2" style="mask-type:alpha" maskUnits="userSpaceOnUse" x="3" y="471" width="497" height="2">
<path d="M3 472H500" stroke="black"/>
</mask>
<g mask="url(#mask0_1_2)">
</g>
</g>
<defs>
<clipPath id="clip0_1_2">
<rect width="500" height="511" fill="white"/>
</clipPath>
</defs>
</svg>
